<svg width="243" height="247" viewBox="0 0 243 247" fill="none" xmlns="http://www.w3.org/2000/svg">
<path d="M214.345 93.7263C200.738 40.2202 153.721 1.59632 98.5337 0.0471491C69.3578 -0.771851 38.6566 8.90451 16.3038 42.7656C-23.6541 103.296 18.7593 145.124 48.3289 165C62.6146 174.622 75.4868 186.192 86.5726 199.374C106.546 223.075 144.97 252.528 190.731 206.38C223.899 172.933 223.409 129.367 214.345 93.7263Z" fill="#F2F2F2"/>
<path d="M237.614 216.929C237.614 227.475 188.019 246.186 126.84 246.186C65.6608 246.186 21.8721 208.268 21.8721 197.722C21.8721 187.176 65.6608 207.996 126.84 207.996C188.019 207.996 237.614 206.383 237.614 216.929Z" fill="#3F3D56"/>
<path opacity="0.1" d="M237.614 216.929C237.614 227.475 188.019 246.186 126.84 246.186C65.6608 246.186 21.8721 208.268 21.8721 197.722C21.8721 187.176 65.6608 207.996 126.84 207.996C188.019 207.996 237.614 206.383 237.614 216.929Z" fill="black"/>
<path d="M237.614 216.817C237.614 227.363 188.019 235.912 126.84 235.912C65.6608 235.912 21.8721 208.268 21.8721 197.722C21.8721 187.176 65.6608 197.722 126.84 197.722C188.019 197.722 237.614 206.271 237.614 216.817Z" fill="#3F3D56"/>
<g opacity="0.7">
<path opacity="0.7" d="M233.947 57.4763C229.929 65.2752 217.194 74.465 209.395 70.4469C201.596 66.4289 201.687 50.7246 205.705 42.9257C207.635 39.1813 210.973 36.3568 214.985 35.0735C218.997 33.7901 223.355 34.153 227.1 36.0823C230.845 38.0117 233.67 41.3494 234.954 45.3614C236.238 49.3735 235.876 53.7312 233.947 57.4763Z" fill="#6C63FF"/>
<path opacity="0.7" d="M210.055 72.5096C209.804 72.0211 209.407 71.6232 208.919 71.3717C208.43 71.1202 207.876 71.0277 207.333 71.1071L208.735 68.385L211.457 69.7875L210.055 72.5096Z" fill="#6C63FF"/>
<path opacity="0.7" d="M208.071 69.6919C208.383 70.124 208.794 70.4756 209.269 70.7179C209.744 70.9603 210.27 71.0863 210.804 71.0857" stroke="#2F2E41" stroke-width="2" stroke-miterlimit="10"/>
<path opacity="0.4" d="M231.741 48.8046C232.757 46.8314 232.248 44.5451 230.604 43.6979C228.96 42.8507 226.803 43.7635 225.786 45.7367C224.769 47.71 225.278 49.9963 226.923 50.8435C228.567 51.6907 230.724 50.7779 231.741 48.8046Z" fill="white"/>
<path opacity="0.7" d="M209.322 70.5447L197.471 100.367" stroke="#2F2E41" stroke-width="2" stroke-miterlimit="10"/>
</g>
<path d="M236.449 105.317C227.652 114.191 206.418 121.224 197.543 112.427C188.668 103.63 195.513 82.3348 204.31 73.46C208.535 69.2007 214.279 66.7936 220.278 66.7683C226.278 66.7429 232.042 69.1012 236.302 73.3247C240.563 77.5482 242.972 83.291 243 89.2903C243.027 95.2897 240.671 101.054 236.449 105.317Z" fill="#FF6584"/>
<path d="M197.556 115.511C197.425 114.74 197.056 114.03 196.5 113.479C195.945 112.929 195.231 112.566 194.459 112.441L197.529 109.343L200.627 112.414L197.556 115.511Z" fill="#FF6584"/>
<path d="M196.067 110.834C196.307 111.555 196.714 112.209 197.256 112.741C197.798 113.274 198.458 113.67 199.183 113.898" stroke="#2F2E41" stroke-width="2" stroke-miterlimit="10"/>
<path d="M196.952 113.176L167.782 142.603" stroke="#2F2E41" stroke-width="2" stroke-miterlimit="10"/>
<path opacity="0.4" d="M237.164 92.5912C239.389 90.3458 239.677 87.0219 237.806 85.1671C235.934 83.3124 232.613 83.629 230.387 85.8745C228.162 88.1199 227.874 91.4438 229.746 93.2986C231.617 95.1533 234.938 94.8367 237.164 92.5912Z" fill="white"/>
<path d="M208.954 76.5657C206.055 88.7208 191.575 105.77 179.42 102.872C167.265 99.9729 162.038 78.2234 164.936 66.0684C166.332 60.2348 169.986 55.194 175.097 52.054C180.207 48.9139 186.356 47.9317 192.19 49.3231C198.025 50.7145 203.068 54.3657 206.211 59.4742C209.355 64.5827 210.341 70.7303 208.954 76.5657Z" fill="#6C63FF"/>
<path d="M181.035 105.499C180.522 104.909 179.837 104.494 179.076 104.312C178.315 104.131 177.517 104.192 176.792 104.487L177.804 100.244L182.047 101.256L181.035 105.499Z" fill="#6C63FF"/>
<path d="M177.331 102.278C177.911 102.769 178.599 103.116 179.338 103.289C180.078 103.462 180.848 103.457 181.585 103.274" stroke="#2F2E41" stroke-width="2" stroke-miterlimit="10"/>
<path opacity="0.4" d="M202.947 65.3243C203.68 62.2489 202.197 59.2604 199.634 58.6492C197.071 58.038 194.399 60.0356 193.666 63.111C192.932 66.1864 194.415 69.1749 196.978 69.7861C199.541 70.3973 202.213 68.3997 202.947 65.3243Z" fill="white"/>
<path d="M179.352 103.813L169.74 144.118" stroke="#2F2E41" stroke-width="2" stroke-miterlimit="10"/>
<g opacity="0.8">
<path opacity="0.8" d="M74.2229 183.145C67.9042 189.293 52.8351 193.984 46.6864 187.666C40.5378 181.347 45.638 166.411 51.9567 160.263C53.4591 158.801 55.2348 157.649 57.1824 156.873C59.13 156.097 61.2113 155.713 63.3075 155.741C65.4037 155.77 67.4737 156.211 69.3994 157.04C71.3251 157.868 73.0688 159.068 74.5308 160.571C75.9928 162.073 77.1446 163.849 77.9204 165.796C78.6961 167.744 79.0807 169.825 79.0521 171.921C79.0235 174.018 78.5823 176.088 77.7538 178.013C76.9252 179.939 75.7254 181.683 74.2229 183.145Z" fill="#6C63FF"/>
<path opacity="0.8" d="M46.6569 189.842C46.574 189.296 46.3225 188.79 45.9376 188.395C45.5528 187.999 45.0539 187.734 44.5107 187.636L46.7162 185.49L48.8624 187.695L46.6569 189.842Z" fill="#6C63FF"/>
<path opacity="0.8" d="M45.666 186.523C45.826 187.035 46.1051 187.501 46.4805 187.884C46.8558 188.266 47.3167 188.554 47.825 188.724" stroke="#2F2E41" stroke-width="2" stroke-miterlimit="10"/>
<path opacity="0.4" d="M74.8897 174.177C76.4884 172.621 76.7335 170.28 75.4371 168.948C74.1407 167.616 71.7937 167.797 70.195 169.353C68.5963 170.908 68.3512 173.249 69.6476 174.582C70.944 175.914 73.291 175.733 74.8897 174.177Z" fill="white"/>
</g>
<path d="M142.802 53.5713H147.241C150.153 53.5713 152.946 54.7282 155.005 56.7875C157.064 58.8468 158.221 61.6397 158.221 64.552V79.9719H131.821V64.552C131.821 63.11 132.105 61.6821 132.657 60.3499C133.208 59.0176 134.017 57.8071 135.037 56.7875C136.057 55.7678 137.267 54.959 138.599 54.4071C139.932 53.8553 141.36 53.5713 142.802 53.5713Z" fill="#2F2E41"/>
<path d="M130.201 122.314L126.869 129.319C126.869 129.319 124.154 138.729 127.231 139.735C130.308 140.741 130.909 130.078 130.909 130.078L133.457 123.018L130.201 122.314Z" fill="#FFB9B9"/>
<path opacity="0.1" d="M130.201 122.314L126.869 129.319C126.869 129.319 124.154 138.729 127.231 139.735C130.308 140.741 130.909 130.078 130.909 130.078L133.457 123.018L130.201 122.314Z" fill="black"/>
<path d="M130.832 111.35L126.618 126.098L133.29 129.61V112.052L130.832 111.35Z" fill="#575A89"/>
<path d="M142.244 72.1976C142.244 72.1976 141.893 77.8159 141.191 77.8159C140.489 77.8159 139.084 84.4876 139.084 84.4876L145.053 88.3502L152.427 81.6785L150.321 76.4113C150.321 76.4113 149.267 74.3045 149.618 72.1976C149.969 70.0908 142.244 72.1976 142.244 72.1976Z" fill="#FFB9B9"/>
<path opacity="0.1" d="M142.244 72.1976C142.244 72.1976 141.893 77.8159 141.191 77.8159C140.489 77.8159 139.084 84.4876 139.084 84.4876L145.053 88.3502L152.427 81.6785L150.321 76.4113C150.321 76.4113 149.267 74.3045 149.618 72.1976C149.969 70.0908 142.244 72.1976 142.244 72.1976Z" fill="black"/>
<path d="M164.366 128.029L165.068 135.754C165.068 135.754 167.526 145.235 170.687 144.533C173.847 143.831 168.931 134.35 168.931 134.35L167.526 126.976L164.366 128.029Z" fill="#FFB9B9"/>
<path d="M149.267 204.228C149.267 204.228 151.374 217.22 149.969 219.678C148.565 222.136 151.374 222.487 151.374 222.487L159.801 220.38V216.518C159.801 216.518 156.992 203.876 156.992 203.174C156.992 202.472 149.267 204.228 149.267 204.228Z" fill="#FFB9B9"/>
<path d="M132.061 145.938C132.061 145.938 134.519 171.22 138.382 179.296C142.244 187.372 145.756 209.494 147.511 209.846C149.267 210.197 162.61 207.739 164.366 206.334C166.122 204.93 152.427 170.869 152.427 170.518C152.427 170.166 149.267 138.915 149.267 138.915L145.053 131.892L132.061 145.938Z" fill="#2F2E41"/>
<path opacity="0.1" d="M132.061 145.938C132.061 145.938 134.519 171.22 138.382 179.296C142.244 187.372 145.756 209.494 147.511 209.846C149.267 210.197 162.61 207.739 164.366 206.334C166.122 204.93 152.427 170.869 152.427 170.518C152.427 170.166 149.267 138.915 149.267 138.915L145.053 131.892L132.061 145.938Z" fill="black"/>
<path d="M152.427 218.975C152.427 218.975 148.916 217.22 148.214 218.273L145.404 222.487C145.404 222.487 133.466 228.105 137.679 228.807C141.893 229.51 149.969 229.51 151.023 228.807C152.076 228.105 163.664 221.784 163.313 221.433C162.962 221.082 160.152 213.708 159.801 214.41C159.45 215.113 154.534 220.38 152.427 218.975Z" fill="#2F2E41"/>
<path d="M93.4351 189.128C93.4351 189.128 85.3588 194.746 81.4962 193.693C77.6337 192.64 81.4962 201.418 81.4962 201.418L88.5191 205.281L90.626 203.525C90.626 203.525 98 193.693 101.16 193.342C104.321 192.991 93.4351 189.128 93.4351 189.128Z" fill="#FFB9B9"/>
<path d="M129.954 124.869L131.359 132.243L105.023 172.273C105.023 172.273 89.2217 188.075 90.6262 189.831C92.0308 191.586 100.809 201.769 102.916 200.365C105.023 198.96 153.832 146.289 153.481 139.266C153.13 132.243 141.542 118.9 141.542 118.9L129.954 124.167V124.869Z" fill="#2F2E41"/>
<path d="M83.252 196.151C83.252 196.151 86.4123 192.639 84.6566 192.288C82.6819 191.94 80.6888 191.706 78.6872 191.586C77.9849 191.586 68.504 186.67 67.8017 188.426C67.0995 190.181 72.0155 199.311 74.8246 200.365C77.6337 201.418 87.8169 208.792 87.8169 208.792C87.8169 208.792 93.084 204.227 92.3817 203.174C91.6795 202.12 81.8475 200.013 83.252 196.151Z" fill="#2F2E41"/>
<path d="M145.053 75.7089C149.708 75.7089 153.481 71.9358 153.481 67.2814C153.481 62.6271 149.708 58.854 145.053 58.854C140.399 58.854 136.626 62.6271 136.626 67.2814C136.626 71.9358 140.399 75.7089 145.053 75.7089Z" fill="#FFB9B9"/>
<path d="M146.809 79.9227C146.809 79.9227 140.84 80.2738 139.084 79.2204C137.328 78.167 133.466 93.6173 133.466 93.6173L131.008 113.984C131.008 113.984 130.657 116.442 131.008 117.846C131.359 119.251 127.496 117.144 128.901 121.006C130.305 124.869 127.847 126.625 130.305 126.976C132.763 127.327 145.756 122.06 145.756 122.06L151.725 90.8081L153.481 78.167L146.809 79.9227Z" fill="#D0CDE1"/>
<path d="M141.616 77.0702C141.616 77.0702 138.382 76.4113 137.328 77.1136C136.275 77.8159 132.412 83.083 132.412 84.4876C132.412 85.8922 131.008 101.342 131.008 102.747C131.008 104.152 129.954 111.526 129.954 112.228C129.954 112.93 130.855 115.949 130.855 115.949L133.114 111.877C133.114 111.877 132.412 106.61 134.87 98.1822C137.328 89.7547 141.616 77.0702 141.616 77.0702Z" fill="#575A89"/>
<path d="M145.053 82.3805C145.053 82.3805 149.744 75.0065 150.032 75.7088C150.32 76.4111 155.588 77.4645 155.588 77.4645C155.588 77.4645 165.069 84.1362 164.366 86.9454C163.664 89.7545 158.748 110.823 158.748 110.823C158.748 110.823 154.183 121.709 157.694 129.434C161.206 137.159 156.992 139.968 156.992 139.968C156.992 139.968 154.183 141.373 154.885 142.777C155.588 144.182 146.809 149.449 145.756 145.586C144.702 141.724 131.71 118.548 134.519 110.121C137.328 101.693 145.053 82.3805 145.053 82.3805Z" fill="#575A89"/>
<path d="M162.61 85.8923C162.61 85.8923 166.473 93.2663 165.771 94.3198C165.068 95.3732 168.229 101.694 168.229 101.694C168.01 102.259 168.01 102.885 168.229 103.449C168.58 104.503 170.687 109.068 170.687 110.823C170.687 112.579 170.336 118.197 170.687 120.655C171.038 123.113 175.603 129.083 171.74 129.434C167.878 129.785 161.557 132.945 161.908 129.434C162.259 125.923 163.313 117.495 161.908 116.091C160.504 114.686 159.45 114.686 160.152 112.93C160.855 111.175 156.992 106.61 156.992 106.61L162.61 85.8923Z" fill="#575A89"/>
<path d="M152.095 65.2058H138.766L135.748 58.27H154.359L152.095 65.2058Z" fill="#2F2E41"/>
<path d="M137.017 70.2808C137.373 70.1776 137.439 69.3243 137.163 68.3748C136.888 67.4254 136.377 66.7393 136.021 66.8425C135.665 66.9457 135.599 67.799 135.874 68.7484C136.149 69.6979 136.661 70.384 137.017 70.2808Z" fill="#FFB9B9"/>
<path d="M153.944 68.7482C154.219 67.7988 154.153 66.9454 153.797 66.8423C153.441 66.7391 152.929 67.4251 152.654 68.3746C152.379 69.3241 152.445 70.1774 152.801 70.2806C153.157 70.3837 153.668 69.6977 153.944 68.7482Z" fill="#FFB9B9"/>
<path d="M232.711 202.333C232.711 210.49 227.863 213.338 221.881 213.338C221.742 213.338 221.603 213.336 221.466 213.334C221.188 213.326 220.914 213.313 220.643 213.294C215.245 212.913 211.052 209.919 211.052 202.333C211.052 194.485 221.079 184.581 221.836 183.845C221.837 183.845 221.837 183.845 221.837 183.845C221.837 183.845 221.837 183.845 221.838 183.844C221.838 183.844 221.838 183.844 221.838 183.844C221.838 183.844 221.838 183.843 221.838 183.843C221.866 183.817 221.881 183.802 221.881 183.802C221.881 183.802 232.711 194.177 232.711 202.333Z" fill="#F2F2F2"/>
<path d="M221.487 212.09L225.447 206.556L221.477 212.697L221.466 213.334C221.188 213.326 220.914 213.313 220.643 213.294L221.07 205.136L221.066 205.072L221.074 205.061L221.115 204.289L217.134 198.133L221.126 203.71L221.136 203.875L221.459 197.71L218.051 191.348L221.5 196.626L221.836 183.845L221.838 183.802V183.843L221.782 193.923L225.174 189.928L221.767 194.791L221.678 200.312L224.846 195.015L221.665 201.123L221.615 204.193L226.213 196.82L221.598 205.264L221.487 212.09Z" fill="#3F3D56"/>
</svg>
