<svg width="211" height="124" viewBox="0 0 211 124" fill="none" xmlns="http://www.w3.org/2000/svg">
<path d="M53.6785 114.018C56.6028 119.441 62.8093 121.77 62.8093 121.77C62.8093 121.77 64.2745 115.305 61.3501 109.881C58.4258 104.458 52.2194 102.13 52.2194 102.13C52.2194 102.13 50.7542 108.595 53.6785 114.018Z" fill="#3F3D56"/>
<path d="M55.6883 112.234C60.9679 115.41 63.0012 121.72 63.0012 121.72C63.0012 121.72 56.4746 122.879 51.195 119.702C45.9154 116.526 43.8821 110.217 43.8821 110.217C43.8821 110.217 50.4087 109.058 55.6883 112.234Z" fill="#6C63FF"/>
<path d="M210.823 123.253H0V123.724H210.823V123.253Z" fill="#2F2E41"/>
<path d="M144.552 9.01812L154.199 7.13577C154.199 7.13577 156.552 -0.864194 159.375 0.0769786C162.199 1.01815 157.493 9.01812 157.493 9.01812L144.081 15.1357L144.552 9.01812Z" fill="#A0616A"/>
<path d="M85.9636 17.0181L81.7283 22.4298C81.7283 22.4298 75.6107 22.1945 77.493 25.4887C79.3754 28.7828 83.6107 26.9004 83.846 26.1945C84.0812 25.4887 90.9047 19.371 90.9047 19.371L85.9636 17.0181Z" fill="#A0616A"/>
<path d="M103.258 10.7828L106.787 8.90041C106.787 8.90041 121.846 7.72395 127.493 11.4886C133.14 15.2533 103.728 15.7239 103.728 15.7239L103.258 10.7828Z" fill="#6C63FF"/>
<path d="M109.964 7.37101C109.964 7.37101 108.081 2.90044 110.669 2.42986C112.146 2.14041 113.664 2.14041 115.14 2.42986L112.316 4.78279L109.964 7.37101Z" fill="#3F3D56"/>
<path opacity="0.1" d="M109.964 7.37101C109.964 7.37101 108.081 2.90044 110.669 2.42986C112.146 2.14041 113.664 2.14041 115.14 2.42986L112.316 4.78279L109.964 7.37101Z" fill="black"/>
<path d="M97.0226 34.4297L90.1991 33.9591L91.3755 36.0768C91.3755 36.0768 81.9638 38.9003 85.0226 46.9003C88.0814 54.9002 92.7873 62.4296 92.7873 62.4296L95.8461 68.3119C95.8461 68.3119 102.199 69.2531 102.434 67.3708C102.67 65.4884 102.434 64.5472 101.258 63.6061C100.081 62.6649 99.3755 60.7826 99.3755 59.8414C99.3755 58.9002 99.6108 57.959 98.9049 57.4885C98.199 57.0179 97.9637 56.312 97.9637 54.9002C97.9637 53.4885 95.3755 48.312 95.3755 48.312C95.3755 48.312 103.611 48.0767 106.199 50.1944C108.787 52.312 117.258 60.312 117.258 60.312C117.726 60.8022 118.122 61.3568 118.434 61.959C118.905 62.9002 118.905 63.3708 119.846 63.8414C120.787 64.312 120.081 66.1943 119.846 66.4296C119.611 66.6649 117.258 76.0766 117.258 76.0766C117.258 76.0766 114.67 80.5472 117.493 80.7825C120.317 81.0178 122.905 81.2531 123.14 80.7825C123.402 80.1302 123.716 79.5007 124.081 78.9001C124.787 77.7237 124.081 75.1354 124.081 75.1354C124.081 75.1354 130.905 66.4296 128.787 61.0179C126.67 55.6061 122.199 43.3709 122.199 43.3709L115.375 40.5473L102.905 36.0768L97.0226 34.4297Z" fill="#2F2E41"/>
<path d="M96.5519 67.1356C96.5519 67.1356 95.1402 72.5473 94.6696 72.7826C94.199 73.0179 89.0225 77.4885 92.5519 78.1943C96.0813 78.9002 98.6695 78.6649 99.3754 77.9591C100.081 77.2532 99.846 76.5473 101.022 76.312C102.199 76.0767 104.317 75.3708 104.081 73.7238C103.846 72.0767 102.67 67.6062 101.964 67.1356C101.258 66.665 96.5519 67.1356 96.5519 67.1356Z" fill="#2F2E41"/>
<path d="M117.022 79.1354C117.022 79.1354 114.905 80.7825 116.081 83.8413C117.258 86.9001 118.905 90.1942 118.905 90.1942C118.905 90.1942 120.787 96.0765 123.846 95.1354C125.088 94.753 125.71 93.7105 126.01 92.6073C126.226 91.7737 126.261 90.9035 126.114 90.055C125.967 89.2066 125.64 88.3993 125.155 87.6874L123.375 85.0178L121.493 80.0766L117.022 79.1354Z" fill="#2F2E41"/>
<path d="M111.14 9.95919C111.14 9.95919 108.317 9.72389 107.846 10.4298C107.375 11.1357 105.258 20.5474 107.846 21.4886C110.434 22.4297 118.199 24.0768 119.375 22.9003C120.552 21.7238 121.022 11.3709 121.022 11.3709L111.14 9.95919Z" fill="#A0616A"/>
<path opacity="0.1" d="M111.14 9.95919C111.14 9.95919 108.317 9.72389 107.846 10.4298C107.375 11.1357 105.258 20.5474 107.846 21.4886C110.434 22.4297 118.199 24.0768 119.375 22.9003C120.552 21.7238 121.022 11.3709 121.022 11.3709L111.14 9.95919Z" fill="black"/>
<path d="M106.905 17.724C106.905 17.724 110.199 21.0181 112.317 20.5475C114.434 20.077 119.375 17.9593 119.846 17.0181C120.317 16.077 126.199 15.8417 126.199 15.8417L119.846 33.4887L124.317 48.3121C124.317 48.3121 126.905 45.2533 119.846 45.018C112.787 44.7827 103.375 41.2533 101.728 36.5475C101.728 36.5475 91.3755 35.1357 90.9049 34.9004C90.4343 34.6651 92.0813 33.2534 92.0813 33.2534L98.9048 31.371L103.846 25.0181L106.905 17.724Z" fill="#F2F2F2"/>
<path d="M109.022 10.4298C109.022 10.4298 110.199 8.78276 109.022 8.78276C107.846 8.78276 104.552 8.78276 103.375 9.01805C102.199 9.25334 97.7284 8.07688 97.2578 9.48864C96.7872 10.9004 96.7872 19.6062 97.7284 20.3121C98.6696 21.018 99.1401 21.018 97.9637 22.4298C96.7872 23.8415 93.9637 28.5474 94.6696 30.1944C95.3755 31.8415 87.1402 32.3121 88.3167 34.1944C88.6361 34.7323 89.0813 35.1846 89.6141 35.5125C90.1469 35.8404 90.7513 36.034 91.3755 36.0768C91.3755 36.0768 91.8461 32.3121 94.6696 34.1944C97.4931 36.0768 101.258 40.7826 104.317 37.7238C107.375 34.665 108.552 31.8415 108.787 27.8415C109.022 23.8415 108.787 21.2533 108.317 18.9004C107.846 16.5474 109.022 10.4298 109.022 10.4298Z" fill="#6C63FF"/>
<path d="M121.258 14.9004C121.258 14.9004 123.14 16.5474 121.258 20.5474C119.375 24.5474 114.434 33.9591 118.434 40.0767C122.434 46.1943 124.081 47.8414 123.14 49.0179C122.568 49.7633 122.239 50.6671 122.199 51.6061L124.787 50.6649C124.787 50.6649 125.258 47.3708 126.199 45.0179C127.14 42.665 124.316 35.6062 124.316 35.6062L125.258 26.4297C125.258 26.4297 129.022 20.5474 129.493 20.3121C129.963 20.0768 128.552 9.9592 128.552 9.9592C128.552 9.9592 126.199 9.25332 125.022 9.9592C123.846 10.6651 121.258 14.9004 121.258 14.9004Z" fill="#6C63FF"/>
<path d="M98.6695 9.72391H97.2578L87.6108 14.6651C87.6108 14.6651 86.9049 11.6063 86.4343 12.3121C85.9637 13.018 86.199 14.9004 85.0225 15.3709C83.8461 15.8415 83.1402 16.5474 85.0225 17.4886C86.9049 18.4298 87.1402 17.7239 87.1402 19.3709C87.1402 21.018 88.5519 21.2533 89.7284 20.7827C90.9049 20.3121 91.1402 20.0768 92.3166 20.5474C93.4931 21.018 92.7872 21.7239 94.4343 21.018C96.0813 20.3121 100.317 20.5474 100.317 20.5474L98.6695 9.72391Z" fill="#6C63FF"/>
<path d="M126.905 10.4299L128.552 9.95931C128.552 9.95931 133.493 10.4299 134.669 10.4299C135.846 10.4299 137.022 10.1946 137.728 10.1946C138.434 10.1946 141.964 9.72402 142.434 9.25343C142.905 8.78285 145.022 7.60638 145.258 8.31226C145.493 9.01814 148.081 13.4887 145.728 15.6063C143.375 17.724 142.905 16.7828 141.493 17.724C140.081 18.6652 128.787 20.5475 128.552 20.3122C128.317 20.0769 126.905 10.4299 126.905 10.4299Z" fill="#6C63FF"/>
<path d="M117.258 19.3711C121.156 19.3711 124.317 16.2108 124.317 12.3123C124.317 8.41384 121.156 5.25351 117.258 5.25351C113.359 5.25351 110.199 8.41384 110.199 12.3123C110.199 16.2108 113.359 19.3711 117.258 19.3711Z" fill="#A0616A"/>
<path d="M112.063 12.5961C112.144 12.7497 112.193 12.9175 112.209 13.0901C112.304 13.4906 112.529 13.8482 112.849 14.1063C113.169 14.3644 113.567 14.5082 113.978 14.515C113.944 14.6665 113.943 14.8233 113.974 14.9754C114.005 15.1274 114.068 15.2712 114.158 15.3973C114.249 15.5235 114.365 15.6292 114.499 15.7075C114.632 15.7859 114.781 15.8352 114.936 15.8521C115.413 15.2407 115.769 14.5438 115.984 13.7987C116.037 13.5061 116.159 13.2302 116.339 12.9935C116.589 12.7277 116.981 12.6626 117.343 12.6159C119.222 12.3739 121.112 12.2331 123.005 12.194C123.262 12.2125 123.52 12.1599 123.749 12.0418C124.281 11.699 124.104 10.8723 123.768 10.336C123.106 9.28734 122.099 8.5019 120.921 8.11462C120.077 7.84041 119.181 7.78317 118.299 7.68026C117.119 7.54247 115.944 7.3192 114.756 7.31229C113.567 7.30537 112.338 7.53399 111.367 8.21864C110.659 8.71722 109.498 10.1145 110.066 10.9963C110.157 11.1375 110.444 11.207 110.567 11.351C110.733 11.5468 110.734 11.8428 110.923 12.0206C111.238 12.3173 111.81 12.2231 112.063 12.5961Z" fill="#2F2E41"/>
<path d="M117.258 0.547638C117.258 0.547638 109.258 3.37116 109.964 7.37114C110.669 11.3711 112.787 16.077 117.258 15.8417C121.728 15.6064 124.081 10.7403 124.081 10.7403L122.905 4.07704C122.905 4.07704 118.434 0.547638 117.258 0.547638Z" fill="#3F3D56"/>
<path d="M116.248 14.6672C116.248 14.6672 119.393 11.2548 120.977 13.2335C120.977 13.2335 120.905 13.1358 116.248 14.6672Z" fill="#2F2E41"/>
<path d="M122.187 101.916C117.969 101.916 112.75 100.518 107.665 95.468C95.2154 83.1036 83.388 81.8635 83.27 81.8525L83.3139 81.3837C83.4336 81.395 95.4287 82.6521 107.997 95.1339C114.455 101.548 121.12 101.941 125.575 101.14C128.517 100.606 131.319 99.4767 133.81 97.8214L134.088 98.201C131.544 99.8944 128.682 101.051 125.676 101.6C124.525 101.809 123.357 101.915 122.187 101.916Z" fill="#2F2E41"/>
<path d="M89.6109 91.7238C91.1703 91.7238 92.4344 90.4596 92.4344 88.9002C92.4344 87.3409 91.1703 86.0767 89.6109 86.0767C88.0515 86.0767 86.7874 87.3409 86.7874 88.9002C86.7874 90.4596 88.0515 91.7238 89.6109 91.7238Z" fill="#2F2E41"/>
<path d="M109.611 104.9C111.17 104.9 112.434 103.636 112.434 102.077C112.434 100.517 111.17 99.253 109.611 99.253C108.051 99.253 106.787 100.517 106.787 102.077C106.787 103.636 108.051 104.9 109.611 104.9Z" fill="#2F2E41"/>
<path d="M160.823 123.488C155.101 122.593 149.6 121.831 144.319 121.203L146.352 117.135C145.646 116.9 142.588 119.253 142.588 119.253L145.176 107.488C141.646 107.959 139.999 119.959 139.999 119.959L135.999 115.959L137.968 120.488C121.808 118.79 107.863 118.26 96.1413 118.381L97.8819 114.9C97.176 114.665 94.1172 117.018 94.1172 117.018L96.7054 105.253C93.1761 105.724 91.529 117.724 91.529 117.724L87.529 113.724L89.6145 118.52C81.585 118.754 73.5727 119.399 65.6093 120.453C67.3461 115.043 73.4114 109.841 73.4114 109.841C68.7478 111.292 66.3215 113.656 65.0657 115.847C64.8117 104.731 66.5218 93.6571 70.1173 83.1355C70.1173 83.1355 60.7056 104.312 62.1174 118.429L62.2965 120.937C54.1084 122.215 49.9998 123.488 49.9998 123.488H160.823Z" fill="#3F3D56"/>
</svg>
